# xmcd
#
# Track frame offsets:
# 150
# 11057
# 23585
# 40397
# 56117
# 70420
# 83602
# 95295
# 108277
# 121660
# 134895
# 146650
# 157740
# 168375
# 181150
# 190317
# 204215
# 214177
# 224250
# 238920
# 256290
# 266087
# 277252
# 290800
# 304982
# 315197
# 327360
# 341975
#
# Disc length: 4716 seconds
#
#
# Revision: 0
# Processed by: cddbd v1.4PL0 Copyright (c) Steve Scherf et al.
# Submitted via: FreeRIP 2.00 
#
DISCID=ac126a1c
DTITLE=Vernon Oxford - Keeper Of The Flame - Disc 4
DYEAR=1995
DGENRE=Country
TTITLE0=There's A Better Place
TTITLE1=Joanna
TTITLE2=Who Were Ann And Louis Adams
TTITLE3=Mommy Do You Think I'll Get To Heaven
TTITLE4=State Of Depression
TTITLE5=Woman
TTITLE6=Maggie The Baby Is Crying
TTITLE7=If I Had My Wife To Love Over
TTITLE8=I'll Forgive You For The Last Time
TTITLE9=If There Was No Country Music
TTITLE10=Cattle Call
TTITLE11=I Love To Sing
TTITLE12=Walkin' My Blues Away
TTITLE13=If Kisses Could Talk
TTITLE14=Gonna Ease My Worried Mind
TTITLE15=No One Is Listening
TTITLE16=Turn The Record Over
TTITLE17=I Think Living Is Sweet
TTITLE18=A Blanket Of Stars
TTITLE19=The Greatest Stoneface
TTITLE20=Rainy Day
TTITLE21=(I Just Want) Somebody To Love Me
TTITLE22=Let Your Light Shine
TTITLE23=Bringing Mary Home
TTITLE24=Bad Moon Risin'
TTITLE25=Letters Have No Arms
TTITLE26=Mother's Not Dead, She's Only Sleeping
TTITLE27=Honky Tonk Troubles
EXTD=
EXTT0=
EXTT1=
EXTT2=
EXTT3=
EXTT4=
EXTT5=
EXTT6=
EXTT7=
EXTT8=
EXTT9=
EXTT10=
EXTT11=
EXTT12=
EXTT13=
EXTT14=
EXTT15=
EXTT16=
EXTT17=
EXTT18=
EXTT19=
EXTT20=
EXTT21=
EXTT22=
EXTT23=
EXTT24=
EXTT25=
EXTT26=
EXTT27=
PLAYORDER=
